<?xml version="1.0" standalone="no"?>
<!DOCTYPE svg PUBLIC "-//W3C//DTD SVG 20010904//EN"
 "http://www.w3.org/TR/2001/REC-SVG-20010904/DTD/svg10.dtd">
<svg version="1.0" xmlns="http://www.w3.org/2000/svg"
 width="900.000000pt" height="100.000000pt" viewBox="0 0 900.000000 100.000000"
 preserveAspectRatio="xMidYMid meet">

<g transform="translate(0.000000,100.000000) scale(0.100000,-0.100000)"
fill="#000000" stroke="none">
<path d="M5208 993 l22 -4 -22 -19 c-13 -11 -18 -19 -12 -20 6 0 21 11 34 25
l23 25 -34 -1 c-24 -1 -27 -3 -11 -6z"/>
<path d="M3884 958 c3 -7 9 -21 12 -30 4 -10 10 -18 15 -18 5 0 3 14 -6 30
-15 28 -33 44 -21 18z"/>
<path d="M3830 940 c0 -5 6 -10 14 -10 8 0 23 -3 33 -6 10 -3 7 2 -7 10 -30
18 -40 20 -40 6z"/>
<path d="M4480 941 c0 -6 4 -13 10 -16 6 -3 7 1 4 9 -7 18 -14 21 -14 7z"/>
<path d="M4110 932 c0 -6 14 -14 32 -17 l32 -7 -25 -14 c-30 -16 -19 -18 16
-2 19 8 31 8 51 -1 15 -6 29 -10 31 -7 6 5 -63 37 -87 41 -8 1 -23 6 -32 10
-11 4 -18 3 -18 -3z"/>
<path d="M4435 923 c6 -6 30 -17 55 -26 25 -8 54 -18 64 -23 13 -5 17 -4 13 4
-4 6 -31 18 -60 28 -28 9 -59 19 -67 22 -10 3 -12 2 -5 -5z"/>
<path d="M4710 908 c0 -4 14 -8 30 -8 17 0 30 2 30 4 0 2 -13 6 -30 8 -16 3
-30 1 -30 -4z"/>
<path d="M4921 916 c10 -9 79 -14 79 -5 0 5 -19 9 -42 9 -23 0 -39 -2 -37 -4z"/>
<path d="M307 898 c-6 -19 11 -48 28 -48 16 0 19 18 9 44 -7 19 -30 21 -37 4z"/>
<path d="M3940 900 c8 -5 20 -10 25 -10 6 0 3 5 -5 10 -8 5 -19 10 -25 10 -5
0 -3 -5 5 -10z"/>
<path d="M75 891 c-8 -15 14 -53 28 -48 18 6 15 51 -5 55 -9 2 -19 -2 -23 -7z"/>
<path d="M4460 880 c-8 -5 -10 -10 -5 -10 6 0 17 5 25 10 8 5 11 10 5 10 -5 0
-17 -5 -25 -10z"/>
<path d="M250 860 c0 -26 38 -47 46 -25 7 18 -12 45 -32 45 -8 0 -14 -9 -14
-20z"/>
<path d="M366 865 c-7 -20 3 -45 19 -45 16 0 23 19 17 43 -5 21 -28 22 -36 2z"/>
<path d="M20 851 c0 -22 29 -36 43 -22 7 7 6 15 -3 26 -17 21 -40 19 -40 -4z"/>
<path d="M135 861 c-9 -16 15 -55 27 -43 12 12 7 44 -9 49 -6 2 -14 -1 -18 -6z"/>
<path d="M4750 840 c-9 -6 -10 -10 -3 -10 6 0 15 5 18 10 8 12 4 12 -15 0z"/>
<path d="M5000 837 c-14 -6 -27 -14 -30 -18 -3 -3 -14 -11 -25 -17 -11 -6 -15
-11 -10 -12 6 0 33 14 60 30 50 30 53 39 5 17z"/>
<path d="M3905 820 c3 -5 -2 -10 -12 -10 -10 0 -25 -5 -33 -11 -11 -7 -6 -8
20 -3 31 6 33 5 21 -10 -8 -9 -11 -19 -8 -23 4 -3 12 6 18 21 7 14 17 26 23
26 6 0 4 5 -4 10 -20 13 -33 13 -25 0z"/>
<path d="M3958 823 c7 -3 16 -2 19 1 4 3 -2 6 -13 5 -11 0 -14 -3 -6 -6z"/>
<path d="M4470 820 c0 -6 7 -10 15 -10 8 0 15 2 15 4 0 2 -7 6 -15 10 -8 3
-15 1 -15 -4z"/>
<path d="M4705 820 c3 -5 10 -10 16 -10 5 0 9 5 9 10 0 6 -7 10 -16 10 -8 0
-12 -4 -9 -10z"/>
<path d="M4165 803 c-27 -9 -45 -18 -38 -20 7 -2 21 0 32 6 30 17 36 13 16 -9
-10 -11 -16 -23 -12 -26 3 -3 13 6 23 21 10 15 27 31 38 35 36 15 -6 10 -59
-7z"/>
<path d="M4550 813 c-25 -4 -41 -10 -90 -32 -24 -11 -24 -11 5 -5 17 3 37 7
45 8 21 3 70 24 70 31 0 3 -1 4 -2 4 -2 -1 -14 -4 -28 -6z"/>
<path d="M87 792 c-19 -20 -23 -67 -7 -77 5 -3 20 1 32 9 12 9 30 16 40 16 30
0 32 22 4 47 -33 28 -48 29 -69 5z"/>
<path d="M240 796 c0 -7 7 -19 15 -26 22 -19 44 3 25 25 -16 19 -40 20 -40 1z"/>
<path d="M310 791 c-25 -48 3 -90 39 -57 10 9 27 16 39 16 29 0 28 24 0 44
-31 22 -65 20 -78 -3z"/>
<path d="M4675 800 c-3 -5 -2 -10 4 -10 5 0 13 5 16 10 3 6 2 10 -4 10 -5 0
-13 -4 -16 -10z"/>
<path d="M12 783 c2 -10 13 -19 26 -21 24 -4 29 7 10 26 -18 18 -40 15 -36 -5z"/>
<path d="M5841 524 c0 -11 3 -14 6 -6 3 7 2 16 -1 19 -3 4 -6 -2 -5 -13z"/>
<path d="M7090 520 c-9 -6 -10 -10 -3 -10 6 0 15 5 18 10 8 12 4 12 -15 0z"/>
<path d="M2619 443 c-13 -16 -12 -17 4 -4 9 7 17 15 17 17 0 8 -8 3 -21 -13z"/>
<path d="M375 420 c-9 -14 13 -50 30 -50 18 0 20 31 3 48 -15 15 -25 15 -33 2z"/>
<path d="M140 406 c0 -8 7 -22 16 -31 21 -20 39 -6 29 24 -7 24 -45 29 -45 7z"/>
<path d="M444 406 c-8 -22 2 -46 21 -46 19 0 20 34 0 50 -12 10 -16 9 -21 -4z"/>
<path d="M210 385 c0 -14 7 -28 15 -32 22 -8 28 2 21 32 -8 33 -36 33 -36 0z"/>
<path d="M2313 403 c9 -2 25 -2 35 0 9 3 1 5 -18 5 -19 0 -27 -2 -17 -5z"/>
<path d="M3508 403 c6 -2 18 -2 25 0 6 3 1 5 -13 5 -14 0 -19 -2 -12 -5z"/>
<path d="M3638 403 c12 -2 30 -2 40 0 9 3 -1 5 -23 4 -22 0 -30 -2 -17 -4z"/>
<path d="M3768 403 c7 -3 16 -2 19 1 4 3 -2 6 -13 5 -11 0 -14 -3 -6 -6z"/>
<path d="M4018 403 c12 -2 32 -2 45 0 12 2 2 4 -23 4 -25 0 -35 -2 -22 -4z"/>
<path d="M4753 403 c9 -2 23 -2 30 0 6 3 -1 5 -18 5 -16 0 -22 -2 -12 -5z"/>
<path d="M4808 403 c7 -3 16 -2 19 1 4 3 -2 6 -13 5 -11 0 -14 -3 -6 -6z"/>
<path d="M5368 403 c7 -3 16 -2 19 1 4 3 -2 6 -13 5 -11 0 -14 -3 -6 -6z"/>
<path d="M5873 403 c9 -2 23 -2 30 0 6 3 -1 5 -18 5 -16 0 -22 -2 -12 -5z"/>
<path d="M5928 403 c7 -3 16 -2 19 1 4 3 -2 6 -13 5 -11 0 -14 -3 -6 -6z"/>
<path d="M6843 403 c9 -2 23 -2 30 0 6 3 -1 5 -18 5 -16 0 -22 -2 -12 -5z"/>
<path d="M324 378 c-8 -13 33 -51 47 -42 15 9 10 33 -10 44 -25 13 -28 13 -37
-2z"/>
<path d="M95 370 c-9 -15 14 -40 36 -40 21 0 25 20 7 38 -15 15 -35 15 -43 2z"/>
<path d="M186 321 c-13 -14 -16 -28 -11 -49 8 -40 30 -47 49 -17 8 13 25 26
36 30 28 9 25 34 -6 45 -36 14 -49 13 -68 -9z"/>
<path d="M409 317 c-7 -15 -7 -31 0 -50 13 -33 26 -34 47 -2 9 13 24 27 35 30
23 8 25 31 3 39 -36 14 -74 6 -85 -17z"/>
<path d="M337 313 c-12 -11 -8 -22 14 -34 28 -14 48 3 29 26 -13 16 -32 20
-43 8z"/>
<path d="M107 303 c-19 -18 19 -48 43 -33 11 7 11 11 1 24 -14 17 -33 21 -44
9z"/>
<path d="M4651 222 c-48 -47 -69 -88 -58 -115 13 -35 202 -42 202 -7 0 10 -12
16 -32 18 -18 2 -33 6 -33 10 1 4 23 17 49 30 86 40 66 88 -23 57 -61 -22 -74
-19 -48 8 12 13 22 29 22 35 0 25 -32 10 -79 -36z"/>
<path d="M4323 229 c-13 -5 -23 -12 -23 -16 0 -4 -16 -19 -36 -32 -36 -25 -64
-67 -64 -96 0 -9 15 -22 33 -30 41 -17 154 -22 168 -8 17 17 1 33 -32 33 -42
0 -36 17 10 30 22 6 49 23 61 38 l21 27 -26 8 c-18 6 -38 4 -67 -7 -47 -19
-59 -14 -34 13 25 27 18 51 -11 40z"/>
<path d="M5292 185 c-64 -27 -102 -58 -102 -84 0 -23 58 -71 86 -71 11 0 29
-7 40 -14 24 -17 65 -10 58 9 -3 7 -17 18 -32 25 -26 13 -26 14 32 22 74 10
93 23 70 49 -13 14 -32 19 -73 19 -46 1 -52 3 -36 12 26 14 46 39 39 49 -7 13
-22 10 -82 -16z"/>
<path d="M5624 127 c-47 -48 -64 -76 -64 -106 0 -20 5 -21 108 -21 96 1 105 2
88 15 -11 8 -29 15 -40 15 -13 1 -1 10 30 25 91 42 71 96 -23 60 -50 -19 -64
-14 -40 13 10 10 17 24 17 30 0 25 -36 10 -76 -31z"/>
<path d="M523 114 c-7 -18 6 -45 24 -51 16 -6 24 26 13 48 -13 23 -29 25 -37
3z"/>
<path d="M755 120 c-9 -15 4 -50 20 -50 18 0 28 30 14 46 -14 17 -25 18 -34 4z"/>
<path d="M3821 93 c-16 -16 -41 -38 -55 -50 -44 -37 -33 -43 72 -43 99 1 122
8 135 42 9 26 -29 32 -82 13 -56 -20 -56 -20 -32 11 43 54 14 74 -38 27z"/>
<path d="M466 91 c-16 -25 27 -62 47 -42 7 7 5 17 -8 31 -20 22 -31 25 -39 11z"/>
<path d="M697 94 c-11 -12 13 -44 33 -44 23 0 24 4 10 31 -11 19 -31 25 -43
13z"/>
<path d="M815 90 c-9 -15 5 -52 18 -47 15 5 16 49 0 54 -6 2 -14 -1 -18 -7z"/>
<path d="M584 76 c-7 -19 3 -36 22 -36 10 0 14 8 12 22 -4 26 -26 36 -34 14z"/>
<path d="M685 30 c-10 -16 4 -30 31 -30 27 0 24 14 -6 30 -13 7 -21 7 -25 0z"/>
<path d="M766 24 c-9 -8 -16 -17 -16 -20 0 -2 26 -4 58 -4 l57 0 -30 20 c-36
24 -49 25 -69 4z"/>
<path d="M457 23 c-14 -13 -6 -23 18 -23 28 0 34 15 9 24 -19 7 -19 7 -27 -1z"/>
<path d="M530 15 c-11 -13 -6 -15 36 -15 45 1 48 2 30 15 -25 19 -50 19 -66 0z"/>
<path d="M4783 21 c-70 -12 -61 -21 21 -21 58 0 77 3 74 13 -5 15 -38 17 -95
8z"/>
</g>
</svg>
